<svg width="24" height="24" viewBox="0 0 24 24" fill="none" xmlns="http://www.w3.org/2000/svg">
<g clip-path="url(#clip0_4773_2360)">
<path d="M24.0012 23.9998V15.2098C24.0012 10.8898 23.0712 7.58984 18.0312 7.58984C15.6012 7.58984 13.9812 8.90984 13.3212 10.1698H13.2612V7.97984H8.49121V23.9998H13.4712V16.0498C13.4712 13.9498 13.8612 11.9398 16.4412 11.9398C18.9912 11.9398 19.0212 14.3098 19.0212 16.1698V23.9698H24.0012V23.9998Z" fill="#5D6266"/>
<path d="M0.390625 7.98047H5.37062V24.0005H0.390625V7.98047Z" fill="#5D6266"/>
<path d="M2.88 0C1.29 0 0 1.29 0 2.88C0 4.47 1.29 5.79 2.88 5.79C4.47 5.79 5.76 4.47 5.76 2.88C5.76 1.29 4.47 0 2.88 0Z" fill="#5D6266"/>
</g>
<defs>
<clipPath id="clip0_4773_2360">
<rect width="24" height="24" fill="white"/>
</clipPath>
</defs>
</svg>
