<svg width="33" height="32" viewBox="0 0 33 32" fill="none" xmlns="http://www.w3.org/2000/svg">
<path d="M30.3735 7V10C30.3735 11.657 29.0305 13 27.3735 13H26.3735C26.3735 21.602 25.6015 30 16.3735 30C5.24054 30 6.70554 15.114 9.06454 10.519C9.12754 10.396 8.97754 10.289 8.87054 10.377C6.48154 12.349 5.02854 16.261 4.65654 20C-1.75146 11.771 7.37354 8.637 7.37354 2C11.2195 2 15.3805 5.701 15.3805 12.059C15.3805 16.875 12.2255 20.124 9.51454 20.845C10.0285 25.208 12.0155 28 16.3735 28C23.1365 28 24.3735 22.949 24.3735 13H23.3735C21.7165 13 20.3735 11.657 20.3735 10V7C20.3735 6.448 20.8215 6 21.3735 6H22.3735V3C22.3735 2.448 22.8215 2 23.3735 2C23.9255 2 24.3735 2.448 24.3735 3V6H26.3735V3C26.3735 2.448 26.8215 2 27.3735 2C27.9255 2 28.3735 2.448 28.3735 3V6H29.3735C29.9255 6 30.3735 6.448 30.3735 7Z" fill="#050E14"/>
</svg>
