<svg width="40" height="40" viewBox="0 0 40 40" fill="none" xmlns="http://www.w3.org/2000/svg">
<path opacity="0.32" d="M10.8332 33.3337C8.30539 33.3337 6.14539 32.4587 4.35317 30.7087C2.56095 28.9587 1.66539 26.8198 1.6665 24.292C1.6665 22.1253 2.31928 20.1948 3.62484 18.5003C4.93039 16.8059 6.63873 15.7225 8.74984 15.2503C9.38873 13.0003 10.5765 11.1114 12.3132 9.58366C14.0498 8.05588 16.0565 7.12533 18.3332 6.79199V20.2503L16.8332 18.792C16.5276 18.4864 16.1454 18.3337 15.6865 18.3337C15.2276 18.3337 14.8321 18.5003 14.4998 18.8337C14.1943 19.1392 14.0415 19.5281 14.0415 20.0003C14.0415 20.4725 14.1943 20.8614 14.4998 21.167L18.8332 25.5003C19.1665 25.8337 19.5554 26.0003 19.9998 26.0003C20.4443 26.0003 20.8332 25.8337 21.1665 25.5003L25.4998 21.167C25.8054 20.8614 25.9648 20.4792 25.9782 20.0203C25.9915 19.5614 25.8321 19.1659 25.4998 18.8337C25.1943 18.5281 24.8121 18.3681 24.3532 18.3537C23.8943 18.3392 23.4987 18.4853 23.1665 18.792L21.6665 20.2503V6.79199C24.5276 7.18088 26.9098 8.46588 28.8132 10.647C30.7165 12.8281 31.6676 15.3903 31.6665 18.3337C33.5832 18.5559 35.1737 19.3825 36.4382 20.8137C37.7026 22.2448 38.3343 23.9181 38.3332 25.8337C38.3332 27.917 37.6037 29.6881 36.1448 31.147C34.686 32.6059 32.9154 33.3348 30.8332 33.3337H10.8332Z" fill="#4D4747"/>
</svg>
