<svg width="33" height="32" viewBox="0 0 33 32" fill="none" xmlns="http://www.w3.org/2000/svg">
<path d="M26.5114 13.5382C26.4269 13.376 26.2996 13.24 26.1432 13.1452C25.9868 13.0503 25.8074 13.0002 25.6244 13.0002H19.1244V3.00018C19.1243 2.7876 19.0564 2.58061 18.9306 2.40924C18.8048 2.23787 18.6277 2.11105 18.4249 2.04718C18.2221 1.98331 18.0043 1.98571 17.803 2.05405C17.6017 2.12238 17.4274 2.25308 17.3054 2.42718L6.80545 17.4272C6.70068 17.577 6.639 17.7527 6.62712 17.9352C6.61523 18.1176 6.65359 18.2998 6.73802 18.462C6.82246 18.6242 6.94974 18.7601 7.10602 18.855C7.26231 18.9499 7.44161 19.0001 7.62445 19.0002H14.1244V29.0002C14.1246 29.2128 14.1925 29.4198 14.3183 29.5911C14.4441 29.7625 14.6212 29.8893 14.824 29.9532C15.0267 30.0171 15.2446 30.0147 15.4459 29.9463C15.6472 29.878 15.8215 29.7473 15.9434 29.5732L26.4434 14.5732C26.5483 14.4234 26.6101 14.2477 26.6221 14.0652C26.6341 13.8827 26.5958 13.7004 26.5114 13.5382Z" fill="#050E14"/>
</svg>
