<svg width="33" height="32" viewBox="0 0 33 32" fill="none" xmlns="http://www.w3.org/2000/svg">
<path d="M16.625 1.00006C14.4185 1.00006 12.3198 1.4751 10.4316 2.33209C10.1732 2.44944 10.0641 2.75811 10.1914 3.0118L11.085 4.80185C11.2049 5.04224 11.4934 5.14487 11.7383 5.03426C13.2308 4.36784 14.8828 4.00103 16.625 4.00103C23.2583 4.00103 28.624 9.36672 28.624 16.0001C28.624 18.4954 27.856 20.8013 26.5537 22.7217L24.9775 21.1446C24.8698 21.0367 24.7188 20.9839 24.5674 21.0009C24.3147 21.0302 24.1243 21.2446 24.125 21.499V26.999C24.124 27.2751 24.3469 27.4999 24.6231 27.501H30.1221C30.5713 27.5048 30.7968 26.9597 30.4766 26.6446L28.7041 24.8721C30.5327 22.3861 31.625 19.3203 31.625 16C31.625 7.72166 24.9033 1.00006 16.625 1.00006ZM3.12305 4.49907C2.67839 4.49924 2.45511 5.03622 2.76855 5.35162L4.54199 7.12507C2.71309 9.61122 1.625 12.6792 1.625 16.0001C1.625 24.2784 8.34666 31.0001 16.625 31.0001C18.8315 31.0001 20.9302 30.5211 22.8184 29.6641C23.0765 29.5464 23.1851 29.2379 23.0576 28.9845L22.1611 27.1944C22.0413 26.9561 21.7555 26.8539 21.5117 26.962C20.0192 27.6284 18.3672 27.9991 16.625 27.9991C9.99167 27.9991 4.62598 22.6334 4.62598 16.0001C4.62598 13.5056 5.38951 11.1969 6.69043 9.27643L8.27246 10.8545C8.58786 11.168 9.12482 10.9447 9.125 10.5001V5.00104C9.126 4.72338 8.90071 4.49802 8.62305 4.49907H3.12305ZM17.5996 7.49906C17.4365 7.50662 17.2874 7.59448 17.2002 7.73246L11.2031 17.2325C10.9929 17.5645 11.2301 17.9981 11.623 18.0001H15.584L15.126 23.961C15.0892 24.477 15.7644 24.7023 16.0449 24.2677L22.0469 14.7666C22.2583 14.4328 22.0172 13.9972 21.6221 13.999H17.6621L18.1231 8.03811C18.1469 7.7373 17.901 7.48351 17.5996 7.49906Z" fill="#050E14"/>
</svg>
