<svg width="32" height="32" viewBox="0 0 32 32" fill="none" xmlns="http://www.w3.org/2000/svg">
<path d="M28.0604 10.5289V28.0465C28.0604 29.6777 26.7381 31 25.1069 31H6.89295C5.26177 31 3.93945 29.6777 3.93945 28.0465V3.9535C3.93939 2.32231 5.2617 1 6.89295 1H19.0922L28.0604 10.5289Z" fill="#E5252A"/>
<path d="M28.0605 10.5289H21.0613C19.9738 10.5289 19.0923 9.64737 19.0923 8.55994V1L28.0605 10.5289Z" fill="#ED676A"/>
<path d="M10.2335 22.0678V24.0637H8.81641V18.1836H11.1623C11.6122 18.1836 12.0103 18.2663 12.3564 18.4317C12.7025 18.597 12.9698 18.8335 13.1602 19.1393C13.3486 19.445 13.4447 19.7912 13.4447 20.1795C13.4447 20.7525 13.239 21.2102 12.8275 21.5544C12.4179 21.8967 11.8545 22.0678 11.1373 22.0678H10.2335ZM10.2335 20.9737H11.1623C11.4373 20.9737 11.6468 20.9063 11.791 20.7679C11.9352 20.6314 12.0064 20.4372 12.0064 20.1872C12.0064 19.9122 11.9314 19.693 11.7833 19.5277C11.6353 19.3642 11.4334 19.2815 11.1777 19.2777H10.2335V20.9737Z" fill="white"/>
<path d="M14.1982 24.0637V18.1836H16.0922C16.6114 18.1836 17.0787 18.3009 17.494 18.5374C17.9074 18.772 18.2324 19.1047 18.4651 19.5354C18.6977 19.9642 18.815 20.4449 18.8169 20.9775V21.2487C18.8169 21.787 18.7035 22.2697 18.4766 22.6966C18.2497 23.1235 17.9286 23.4562 17.5151 23.6984C17.1017 23.9388 16.6402 24.0599 16.1326 24.0638H14.1982V24.0637ZM15.6154 19.2777V22.9735H16.1077C16.5153 22.9735 16.8268 22.8293 17.0441 22.5389C17.2633 22.2505 17.3729 21.8198 17.3729 21.2487V20.9948C17.3729 20.4257 17.2633 19.9988 17.0441 19.7103C16.8268 19.4219 16.5096 19.2777 16.0923 19.2777H15.6154Z" fill="white"/>
<path d="M23.2493 21.7217H20.963V24.0637H19.5459V18.1836H23.4781V19.2777H20.963V20.6314H23.2493V21.7217Z" fill="white"/>
</svg>
