<svg width="33" height="32" viewBox="0 0 33 32" fill="none" xmlns="http://www.w3.org/2000/svg">
<path d="M14.4858 4.42847V8.30986H9.61328V4.42847C9.61326 4.10955 9.67606 3.79375 9.79809 3.49911C9.92013 3.20446 10.099 2.93674 10.3245 2.71123C10.55 2.48573 10.8177 2.30685 11.1124 2.18481C11.407 2.06278 11.7228 1.99998 12.0417 2H12.0521C12.3714 1.99944 12.6877 2.06184 12.9829 2.18361C13.2781 2.30539 13.5464 2.48417 13.7724 2.70972C13.9984 2.93527 14.1778 3.20316 14.3002 3.49808C14.4226 3.793 14.4857 4.10916 14.4858 4.42847Z" fill="black"/>
<path d="M23.6577 4.42847V8.30986H18.7852V4.42847C18.7853 4.10916 18.8483 3.793 18.9708 3.49808C19.0932 3.20316 19.2725 2.93527 19.4985 2.70972C19.7246 2.48417 19.9928 2.30539 20.288 2.18361C20.5832 2.06184 20.8995 1.99944 21.2188 2H21.2292C21.5481 1.99998 21.8639 2.06278 22.1585 2.18481C22.4532 2.30685 22.7209 2.48573 22.9464 2.71123C23.1719 2.93674 23.3508 3.20446 23.4728 3.49911C23.5949 3.79375 23.6577 4.10955 23.6577 4.42847Z" fill="black"/>
<path d="M19.5002 25.699C19.788 25.6991 20.0755 25.6836 20.3616 25.6523V28.6827C20.3608 29.033 20.221 29.3685 19.9729 29.6157C19.7247 29.8628 19.3886 30.0013 19.0384 30.0007H14.2334C13.8831 30.0013 13.547 29.8628 13.2989 29.6157C13.0508 29.3685 12.9109 29.033 12.9102 28.6827V25.6523C13.1962 25.6836 13.4838 25.6991 13.7715 25.699H19.5002Z" fill="black"/>
<path d="M24.954 9.34766H8.31801C7.9678 9.34845 7.63223 9.48828 7.38508 9.7364C7.13793 9.98453 6.99942 10.3206 7 10.6709V17.8888C7.00462 19.6833 7.71955 21.4031 8.98848 22.672C10.2574 23.9409 11.9771 24.6559 13.7717 24.6605H19.5004C21.2949 24.6559 23.0146 23.9409 24.2836 22.672C25.5525 21.4031 26.2674 19.6833 26.2721 17.8888V10.6709C26.2726 10.3206 26.1341 9.98453 25.887 9.7364C25.6398 9.48828 25.3043 9.34845 24.954 9.34766ZM16.1846 21.812V18.2001L13.7943 16.9254L17.4593 12.1981V15.9162L19.4777 17.191L16.1846 21.812Z" fill="black"/>
</svg>
