<svg width="72" height="72" viewBox="0 0 72 72" fill="none" xmlns="http://www.w3.org/2000/svg">
<g clip-path="url(#clip0_5031_3570)">
<path d="M36 72C16.1208 72 0 55.8792 0 36C0 16.1208 16.1208 0 36 0C55.8792 0 72 16.1208 72 36C72 55.8792 55.8792 72 36 72Z" fill="#2DB742"/>
<path fill-rule="evenodd" clip-rule="evenodd" d="M50.689 21.4005C46.7949 17.5 41.6068 15.352 36.0859 15.3457C24.7112 15.3457 15.4469 24.6037 15.4469 35.9847C15.4469 39.6213 16.3953 43.1763 18.2042 46.3042L15.2773 57.0006L26.2187 54.1302C29.2335 55.7758 32.6252 56.6426 36.0797 56.6426H36.0859C47.4606 56.6426 56.7187 47.3845 56.7249 36.0036C56.7312 30.4889 54.5894 25.3009 50.689 21.4005ZM36.0922 53.1567H36.0859C33.0083 53.1567 29.9872 52.3276 27.3555 50.7637L26.7274 50.3931L20.233 52.0952L21.9665 45.7641L21.5582 45.1171C19.8436 42.3849 18.9328 39.2319 18.9328 35.9847C18.9391 26.5257 26.6332 18.8316 36.0985 18.8316C40.6835 18.8316 44.986 20.6217 48.2269 23.8626C51.4678 27.1035 53.2516 31.4185 53.2453 35.9973C53.2453 45.4626 45.545 53.1567 36.0922 53.1567ZM45.501 40.306C44.986 40.0485 42.4485 38.7986 41.9774 38.629C41.5063 38.4594 41.1609 38.3715 40.8154 38.8865C40.47 39.4015 39.4839 40.5635 39.1824 40.9089C38.8809 41.2544 38.5795 41.2983 38.0644 41.0408C37.5494 40.7833 35.8849 40.2369 33.919 38.4782C32.3865 37.109 31.3501 35.4194 31.0487 34.9044C30.7472 34.3894 31.0173 34.1067 31.2748 33.8492C31.5072 33.6168 31.7898 33.2462 32.0473 32.9448C32.3048 32.6433 32.3928 32.4297 32.5624 32.0843C32.7319 31.7388 32.6503 31.4373 32.5184 31.1798C32.3865 30.9223 31.3564 28.3848 30.9293 27.3485C30.5085 26.3435 30.0877 26.4817 29.7674 26.4629C29.4659 26.4503 29.1204 26.444 28.7813 26.444C28.4358 26.444 27.8768 26.5759 27.4057 27.091C26.9347 27.606 25.6031 28.8559 25.6031 31.3934C25.6031 33.9309 27.4497 36.3867 27.7072 36.7259C27.9647 37.0713 31.3439 42.2782 36.5193 44.5142C37.7504 45.048 38.7113 45.3621 39.4588 45.6008C40.6961 45.9965 41.8204 45.9399 42.706 45.808C43.6984 45.6573 45.7585 44.5581 46.1856 43.3585C46.6127 42.1525 46.6127 41.1225 46.4871 40.9089C46.3615 40.6954 46.016 40.5698 45.501 40.306Z" fill="white"/>
</g>
<defs>
<clipPath id="clip0_5031_3570">
<rect width="72" height="72" fill="white"/>
</clipPath>
</defs>
</svg>
