<svg width="112" height="112" viewBox="0 0 112 112" fill="none" xmlns="http://www.w3.org/2000/svg">
<g clip-path="url(#clip0_3345_2559)" filter="url(#filter0_d_3345_2559)">
<path d="M64 100C44.1208 100 28 83.8792 28 64C28 44.1208 44.1208 28 64 28C83.8792 28 100 44.1208 100 64C100 83.8792 83.8792 100 64 100Z" fill="#2DB742"/>
<path fill-rule="evenodd" clip-rule="evenodd" d="M78.689 49.4005C74.7949 45.5 69.6068 43.352 64.0859 43.3457C52.7112 43.3457 43.4469 52.6037 43.4469 63.9847C43.4469 67.6213 44.3953 71.1763 46.2042 74.3042L43.2773 85.0006L54.2187 82.1302C57.2335 83.7758 60.6252 84.6426 64.0797 84.6426H64.0859C75.4606 84.6426 84.7187 75.3845 84.7249 64.0036C84.7312 58.4889 82.5894 53.3009 78.689 49.4005ZM64.0922 81.1567H64.0859C61.0083 81.1567 57.9872 80.3276 55.3555 78.7637L54.7274 78.3931L48.233 80.0952L49.9665 73.7641L49.5582 73.1171C47.8436 70.3849 46.9328 67.2319 46.9328 63.9847C46.9391 54.5257 54.6332 46.8316 64.0985 46.8316C68.6835 46.8316 72.986 48.6217 76.2269 51.8626C79.4678 55.1035 81.2516 59.4185 81.2453 63.9973C81.2453 73.4626 73.545 81.1567 64.0922 81.1567ZM73.501 68.306C72.986 68.0485 70.4485 66.7986 69.9774 66.629C69.5063 66.4594 69.1609 66.3715 68.8154 66.8865C68.47 67.4015 67.4839 68.5635 67.1824 68.9089C66.8809 69.2544 66.5795 69.2983 66.0644 69.0408C65.5494 68.7833 63.8849 68.2369 61.919 66.4782C60.3865 65.109 59.3501 63.4194 59.0487 62.9044C58.7472 62.3894 59.0173 62.1067 59.2748 61.8492C59.5072 61.6168 59.7898 61.2462 60.0473 60.9448C60.3048 60.6433 60.3928 60.4297 60.5624 60.0843C60.7319 59.7388 60.6503 59.4373 60.5184 59.1798C60.3865 58.9223 59.3564 56.3848 58.9293 55.3485C58.5085 54.3435 58.0877 54.4817 57.7674 54.4629C57.4659 54.4503 57.1204 54.444 56.7813 54.444C56.4358 54.444 55.8768 54.5759 55.4057 55.091C54.9347 55.606 53.6031 56.8559 53.6031 59.3934C53.6031 61.9309 55.4497 64.3867 55.7072 64.7259C55.9647 65.0713 59.3439 70.2782 64.5193 72.5142C65.7504 73.048 66.7113 73.3621 67.4588 73.6008C68.6961 73.9965 69.8204 73.9399 70.706 73.808C71.6984 73.6573 73.7585 72.5581 74.1856 71.3585C74.6127 70.1525 74.6127 69.1225 74.4871 68.9089C74.3615 68.6954 74.016 68.5698 73.501 68.306Z" fill="white"/>
</g>
<defs>
<filter id="filter0_d_3345_2559" x="0" y="0" width="112" height="112" filterUnits="userSpaceOnUse" color-interpolation-filters="sRGB">
<feFlood flood-opacity="0" result="BackgroundImageFix"/>
<feColorMatrix in="SourceAlpha" type="matrix" values="0 0 0 0 0 0 0 0 0 0 0 0 0 0 0 0 0 0 127 0" result="hardAlpha"/>
<feOffset dx="-8" dy="-8"/>
<feGaussianBlur stdDeviation="10"/>
<feColorMatrix type="matrix" values="0 0 0 0 0 0 0 0 0 0 0 0 0 0 0 0 0 0 0.15 0"/>
<feBlend mode="normal" in2="BackgroundImageFix" result="effect1_dropShadow_3345_2559"/>
<feBlend mode="normal" in="SourceGraphic" in2="effect1_dropShadow_3345_2559" result="shape"/>
</filter>
<clipPath id="clip0_3345_2559">
<rect width="72" height="72" fill="white" transform="translate(28 28)"/>
</clipPath>
</defs>
</svg>
